<svg width="169" height="65" viewBox="0 0 169 65" fill="none" xmlns="http://www.w3.org/2000/svg">
<path d="M18.7608 6.10646C22.3211 5.48234 25.6292 5.62156 28.6851 6.52413C31.741 7.4267 34.3091 9.07575 36.3894 11.4713C38.4679 13.8566 39.8291 16.8858 40.473 20.5589C41.0611 23.914 40.9782 26.7892 40.2242 29.1846C39.4787 31.5678 38.3103 33.5599 36.7191 35.1608C35.1279 36.7617 33.0675 38.3708 30.5379 39.9881L23.4193 44.5355C22.3819 45.1933 21.603 45.848 21.0827 46.4997C20.5607 47.1412 20.2252 47.8821 20.0764 48.7225C19.9379 49.5611 19.9605 50.6253 20.1443 51.915L20.6782 55.232L13.5946 50.4774L41.3587 45.6104C42.6413 45.3856 43.6753 45.5533 44.461 46.1135C45.255 46.6617 45.7645 47.5771 45.9893 48.8596L46.6908 52.8611C46.9156 54.1436 46.7479 55.1777 46.1876 55.9633C45.6394 56.7574 44.724 57.2669 43.4415 57.4917L13.5227 62.7365C12.2505 62.9595 11.2164 62.7918 10.4205 62.2333C9.62644 61.6851 9.11698 60.7697 8.89216 59.4872L8.03692 54.6085C7.50453 51.5715 7.50642 48.8374 8.04261 46.4062C8.5788 43.975 9.62309 41.7879 11.1755 39.8448C12.7279 37.9017 14.803 36.105 17.4008 34.4546L24.3201 30.0372C25.4137 29.3379 26.2822 28.6516 26.9256 27.9783C27.5672 27.2947 28.0095 26.5298 28.2524 25.6835C28.4953 24.8372 28.5179 23.8497 28.32 22.7211C28.0898 21.4078 27.6143 20.3542 26.8935 19.5605C26.1709 18.7566 25.2836 18.2194 24.2315 17.9491C23.1897 17.677 22.0584 17.6479 20.8374 17.862C19.5959 18.0796 18.5222 18.5005 17.6164 19.1246C16.719 19.7366 16.0577 20.5188 15.6324 21.4711C15.2174 22.4217 15.11 23.4981 15.3101 24.7003C15.4245 25.4734 15.3815 26.1631 15.1811 26.7693C14.9891 27.3634 14.6319 27.8596 14.1095 28.2579C13.5956 28.6441 12.9179 28.911 12.0766 29.0585L7.67494 29.8301C6.83361 29.9775 6.08751 29.9444 5.43666 29.7307C4.79428 29.5049 4.25559 29.0864 3.82062 28.4752C3.3959 27.8623 3.09361 27.0428 2.91375 26.0168C2.34899 22.7951 2.64567 19.7819 3.80381 16.9773C4.9722 14.1709 6.85423 11.8158 9.4499 9.91192C12.0558 8.00626 15.1595 6.73777 18.7608 6.10646ZM46.6431 24.4869C45.3444 24.581 44.3277 24.3153 43.5931 23.6896C42.8681 23.0529 42.4585 22.0852 42.3644 20.7865L42.0572 16.5476C41.9631 15.2489 42.2292 14.2375 42.8556 13.5132C43.4916 12.7778 44.459 12.3631 45.7577 12.2689L59.8301 11.2492L60.7155 23.4671L46.6431 24.4869ZM54.0796 6.26113C53.9855 4.96245 54.2516 3.95098 54.878 3.22673C55.514 2.49134 56.4813 2.07659 57.78 1.98248L62.1436 1.66627C63.4422 1.57216 64.4541 1.84348 65.1791 2.48025C65.9137 3.10587 66.3281 4.06802 66.4222 5.3667L69.747 51.2464C69.8411 52.5451 69.5697 53.5569 68.933 54.2819C68.3074 55.0165 67.3452 55.4309 66.0465 55.525L61.683 55.8412C60.3843 55.9354 59.3673 55.6644 58.6319 55.0284C57.9076 54.402 57.4984 53.4395 57.4043 52.1408L54.0796 6.26113ZM94.4162 56.5961C90.0847 56.4698 86.2889 55.3066 83.0287 53.1065C79.7789 50.9067 77.2778 47.6918 75.5253 43.4619C73.7832 39.2322 72.9999 34.1083 73.1754 28.09C73.3508 22.0717 74.4313 17.0021 76.4168 12.8811C78.4127 8.76045 81.0969 5.69674 84.4693 3.68999C87.8521 1.68355 91.7093 0.74347 96.0408 0.869746C100.351 0.995415 104.137 2.1531 107.398 4.34279C110.658 6.53248 113.164 9.7423 114.917 13.9723C116.669 18.2022 117.458 23.3367 117.282 29.3758C117.106 35.4149 116.02 40.4948 114.024 44.6155C112.028 48.7362 109.338 51.7945 105.956 53.7905C102.573 55.7866 98.7269 56.7217 94.4162 56.5961ZM94.7695 44.4762C96.5812 44.529 98.2207 44.0558 99.688 43.0564C101.155 42.0571 102.355 40.3987 103.288 38.0811C104.22 35.7635 104.741 32.741 104.849 29.0134C104.958 25.2858 104.614 22.238 103.819 19.8701C103.023 17.5021 101.921 15.7766 100.515 14.6935C99.1083 13.6104 97.4992 13.0424 95.6874 12.9896C93.8757 12.9368 92.2362 13.41 90.769 14.4094C89.3017 15.4087 88.1019 17.0672 87.1693 19.3847C86.2368 21.7023 85.7162 24.7248 85.6076 28.4524C85.4989 32.18 85.8425 35.2278 86.6384 37.5957C87.4344 39.9637 88.5356 41.6892 89.9421 42.7723C91.3487 43.8554 92.9578 44.4234 94.7695 44.4762ZM137.447 60.7642C133.172 60.0573 129.567 58.3947 126.632 55.7766C123.707 53.1602 121.66 49.6385 120.492 45.2115C119.334 40.7862 119.246 35.6035 120.228 29.6633C121.21 23.7231 122.962 18.8446 125.483 15.0277C128.014 11.2125 131.086 8.53707 134.697 7.00151C138.319 5.46766 142.267 5.05422 146.543 5.76118C150.797 6.46475 154.393 8.12044 157.33 10.7283C160.267 13.3361 162.319 16.8535 163.488 21.2805C164.656 25.7075 164.747 30.9014 163.762 36.8621C162.776 42.8228 161.018 47.7108 158.486 51.526C155.955 55.3413 152.879 58.0106 149.259 59.5342C145.639 61.0578 141.702 61.4678 137.447 60.7642ZM139.425 48.8017C141.214 49.0974 142.902 48.8487 144.49 48.0555C146.078 47.2623 147.49 45.78 148.725 43.6087C149.961 41.4374 150.883 38.5122 151.491 34.833C152.099 31.1538 152.168 28.0875 151.698 25.6341C151.227 23.1807 150.368 21.3229 149.119 20.0606C147.871 18.7984 146.353 18.0194 144.564 17.7237C142.776 17.428 141.088 17.6768 139.5 18.47C137.912 19.2631 136.5 20.7454 135.265 22.9167C134.029 25.088 133.107 28.0132 132.499 31.6924C131.89 35.3716 131.822 38.4379 132.292 40.8913C132.763 43.3447 133.622 45.2026 134.871 46.4648C136.119 47.727 137.637 48.506 139.425 48.8017Z" fill="black"/>
</svg>
